<mxfile host="app.diagrams.net" modified="2023-07-20T21:10:15.050Z" agent="Mozilla/5.0 (X11; Linux x86_64; rv:106.0) Gecko/20100101 Firefox/106.0" etag="mlO9QODMb-Nvnei9IQ2e" version="21.3.2" type="github">
  <diagram name="PÃ¡gina-1" id="-axOkUm3RsGXAW3Lqls3">
    <mxGraphModel dx="2390" dy="2421" grid="1" gridSize="10" guides="1" tooltips="1" connect="1" arrows="1" fold="1" page="1" pageScale="1" pageWidth="827" pageHeight="1169" math="0" shadow="0">
      <root>
        <mxCell id="0" />
        <mxCell id="1" parent="0" />
        <mxCell id="6JE3I8eEDpICr71EeEou-188" value="" style="rounded=1;whiteSpace=wrap;html=1;fillColor=#bac8d3;strokeColor=#23445d;" vertex="1" parent="1">
          <mxGeometry x="680" y="-36" width="1000" height="1696" as="geometry" />
        </mxCell>
        <mxCell id="6JE3I8eEDpICr71EeEou-182" value="" style="rounded=1;whiteSpace=wrap;html=1;fillColor=#bac8d3;strokeColor=#23445d;" vertex="1" parent="1">
          <mxGeometry y="-20" width="650" height="770" as="geometry" />
        </mxCell>
        <mxCell id="6JE3I8eEDpICr71EeEou-3" value="" style="rounded=1;whiteSpace=wrap;html=1;fillColor=#f5f5f5;strokeColor=#666666;fontColor=#333333;" vertex="1" parent="1">
          <mxGeometry x="31" y="40" width="550" height="270" as="geometry" />
        </mxCell>
        <mxCell id="6JE3I8eEDpICr71EeEou-7" style="edgeStyle=orthogonalEdgeStyle;rounded=0;orthogonalLoop=1;jettySize=auto;html=1;" edge="1" parent="1" source="6JE3I8eEDpICr71EeEou-2" target="6JE3I8eEDpICr71EeEou-6">
          <mxGeometry relative="1" as="geometry" />
        </mxCell>
        <mxCell id="6JE3I8eEDpICr71EeEou-2" value="&lt;div&gt;.VCF&lt;/div&gt;&lt;div&gt;Reference&lt;/div&gt;&lt;div&gt;Panel&lt;br&gt;&lt;/div&gt;" style="shape=note;whiteSpace=wrap;html=1;backgroundOutline=1;darkOpacity=0.05;" vertex="1" parent="1">
          <mxGeometry x="70" y="120" width="80" height="100" as="geometry" />
        </mxCell>
        <mxCell id="6JE3I8eEDpICr71EeEou-4" value="Reference panel preparation (one time only)" style="text;html=1;strokeColor=none;fillColor=none;align=center;verticalAlign=middle;whiteSpace=wrap;rounded=0;" vertex="1" parent="1">
          <mxGeometry x="10" y="50" width="340" height="30" as="geometry" />
        </mxCell>
        <mxCell id="6JE3I8eEDpICr71EeEou-12" style="edgeStyle=orthogonalEdgeStyle;rounded=0;orthogonalLoop=1;jettySize=auto;html=1;entryX=0;entryY=0.5;entryDx=0;entryDy=0;entryPerimeter=0;" edge="1" parent="1" source="6JE3I8eEDpICr71EeEou-6" target="6JE3I8eEDpICr71EeEou-9">
          <mxGeometry relative="1" as="geometry" />
        </mxCell>
        <mxCell id="6JE3I8eEDpICr71EeEou-13" style="edgeStyle=orthogonalEdgeStyle;rounded=0;orthogonalLoop=1;jettySize=auto;html=1;" edge="1" parent="1" source="6JE3I8eEDpICr71EeEou-6" target="6JE3I8eEDpICr71EeEou-10">
          <mxGeometry relative="1" as="geometry" />
        </mxCell>
        <mxCell id="6JE3I8eEDpICr71EeEou-6" value="&lt;div&gt;.BCF&lt;/div&gt;&lt;div&gt;Reference&lt;/div&gt;&lt;div&gt;Panel&lt;br&gt;&lt;/div&gt;" style="shape=note;whiteSpace=wrap;html=1;backgroundOutline=1;darkOpacity=0.05;fillColor=#fff2cc;strokeColor=#d6b656;" vertex="1" parent="1">
          <mxGeometry x="240" y="120" width="80" height="100" as="geometry" />
        </mxCell>
        <mxCell id="6JE3I8eEDpICr71EeEou-8" value="&lt;div&gt;QC&lt;/div&gt;&lt;div&gt;(normalization,&lt;/div&gt;&lt;div&gt;remove multiallelics, etc)&lt;br&gt;&lt;/div&gt;" style="text;html=1;strokeColor=none;fillColor=none;align=center;verticalAlign=middle;whiteSpace=wrap;rounded=0;" vertex="1" parent="1">
          <mxGeometry x="163" y="201" width="60" height="30" as="geometry" />
        </mxCell>
        <mxCell id="6JE3I8eEDpICr71EeEou-9" value="&lt;div&gt;.TSV&lt;/div&gt;&lt;div&gt;Reference&lt;/div&gt;&lt;div&gt;Panel&lt;/div&gt;&lt;div&gt;(variable positions)&lt;/div&gt;" style="shape=note;whiteSpace=wrap;html=1;backgroundOutline=1;darkOpacity=0.05;" vertex="1" parent="1">
          <mxGeometry x="450" y="60" width="80" height="100" as="geometry" />
        </mxCell>
        <mxCell id="6JE3I8eEDpICr71EeEou-10" value="&lt;div&gt;.VCF&lt;/div&gt;&lt;div&gt;Reference&lt;/div&gt;&lt;div&gt;Panel&lt;/div&gt;&lt;div&gt;(variable positions)&lt;/div&gt;" style="shape=note;whiteSpace=wrap;html=1;backgroundOutline=1;darkOpacity=0.05;" vertex="1" parent="1">
          <mxGeometry x="450" y="175" width="80" height="100" as="geometry" />
        </mxCell>
        <mxCell id="6JE3I8eEDpICr71EeEou-14" value="Extracting variable positions" style="text;html=1;strokeColor=none;fillColor=none;align=center;verticalAlign=middle;whiteSpace=wrap;rounded=0;" vertex="1" parent="1">
          <mxGeometry x="323" y="186" width="60" height="30" as="geometry" />
        </mxCell>
        <mxCell id="6JE3I8eEDpICr71EeEou-17" value="" style="rounded=1;whiteSpace=wrap;html=1;fillColor=#f5f5f5;strokeColor=#666666;fontColor=#333333;" vertex="1" parent="1">
          <mxGeometry x="695" y="30" width="330" height="510" as="geometry" />
        </mxCell>
        <mxCell id="6JE3I8eEDpICr71EeEou-18" value="Computing genotype likelihoods per sample" style="text;html=1;strokeColor=none;fillColor=none;align=center;verticalAlign=middle;whiteSpace=wrap;rounded=0;" vertex="1" parent="1">
          <mxGeometry x="695" y="31" width="340" height="30" as="geometry" />
        </mxCell>
        <mxCell id="6JE3I8eEDpICr71EeEou-28" style="edgeStyle=orthogonalEdgeStyle;rounded=0;orthogonalLoop=1;jettySize=auto;html=1;entryX=0;entryY=0.5;entryDx=0;entryDy=0;entryPerimeter=0;" edge="1" parent="1" source="6JE3I8eEDpICr71EeEou-1" target="6JE3I8eEDpICr71EeEou-27">
          <mxGeometry relative="1" as="geometry" />
        </mxCell>
        <mxCell id="6JE3I8eEDpICr71EeEou-1" value="&lt;div&gt;sample&lt;br&gt;&lt;/div&gt;&lt;div&gt;.BAM&lt;/div&gt;" style="shape=note;whiteSpace=wrap;html=1;backgroundOutline=1;darkOpacity=0.05;" vertex="1" parent="1">
          <mxGeometry x="725" y="400" width="80" height="100" as="geometry" />
        </mxCell>
        <mxCell id="6JE3I8eEDpICr71EeEou-31" style="edgeStyle=orthogonalEdgeStyle;rounded=0;orthogonalLoop=1;jettySize=auto;html=1;entryX=0;entryY=0.5;entryDx=0;entryDy=0;entryPerimeter=0;" edge="1" parent="1" source="6JE3I8eEDpICr71EeEou-20" target="6JE3I8eEDpICr71EeEou-27">
          <mxGeometry relative="1" as="geometry" />
        </mxCell>
        <mxCell id="6JE3I8eEDpICr71EeEou-20" value="&lt;div&gt;.TSV&lt;/div&gt;&lt;div&gt;Reference&lt;/div&gt;&lt;div&gt;Panel&lt;/div&gt;&lt;div&gt;(variable positions)&lt;/div&gt;" style="shape=note;whiteSpace=wrap;html=1;backgroundOutline=1;darkOpacity=0.05;fillColor=#fad9d5;strokeColor=#ae4132;" vertex="1" parent="1">
          <mxGeometry x="725" y="60" width="80" height="100" as="geometry" />
        </mxCell>
        <mxCell id="6JE3I8eEDpICr71EeEou-30" style="edgeStyle=orthogonalEdgeStyle;rounded=0;orthogonalLoop=1;jettySize=auto;html=1;entryX=0;entryY=0.5;entryDx=0;entryDy=0;entryPerimeter=0;" edge="1" parent="1" source="6JE3I8eEDpICr71EeEou-21" target="6JE3I8eEDpICr71EeEou-27">
          <mxGeometry relative="1" as="geometry" />
        </mxCell>
        <mxCell id="6JE3I8eEDpICr71EeEou-21" value="&lt;div&gt;.VCF&lt;/div&gt;&lt;div&gt;Reference&lt;/div&gt;&lt;div&gt;Panel&lt;/div&gt;&lt;div&gt;(variable positions)&lt;/div&gt;" style="shape=note;whiteSpace=wrap;html=1;backgroundOutline=1;darkOpacity=0.05;" vertex="1" parent="1">
          <mxGeometry x="725" y="175" width="80" height="100" as="geometry" />
        </mxCell>
        <mxCell id="6JE3I8eEDpICr71EeEou-29" style="edgeStyle=orthogonalEdgeStyle;rounded=0;orthogonalLoop=1;jettySize=auto;html=1;entryX=0;entryY=0.5;entryDx=0;entryDy=0;entryPerimeter=0;" edge="1" parent="1" source="6JE3I8eEDpICr71EeEou-22" target="6JE3I8eEDpICr71EeEou-27">
          <mxGeometry relative="1" as="geometry" />
        </mxCell>
        <mxCell id="6JE3I8eEDpICr71EeEou-22" value="&lt;div&gt;.FASTA&lt;/div&gt;&lt;div&gt;reference&lt;/div&gt;&lt;div&gt;genome&lt;br&gt;&lt;/div&gt;" style="shape=note;whiteSpace=wrap;html=1;backgroundOutline=1;darkOpacity=0.05;" vertex="1" parent="1">
          <mxGeometry x="725" y="290" width="80" height="100" as="geometry" />
        </mxCell>
        <mxCell id="6JE3I8eEDpICr71EeEou-25" value="" style="endArrow=classic;html=1;rounded=0;dashed=1;" edge="1" parent="1">
          <mxGeometry width="50" height="50" relative="1" as="geometry">
            <mxPoint x="546" y="231" as="sourcePoint" />
            <mxPoint x="710" y="231" as="targetPoint" />
          </mxGeometry>
        </mxCell>
        <mxCell id="6JE3I8eEDpICr71EeEou-26" value="" style="endArrow=classic;html=1;rounded=0;dashed=1;" edge="1" parent="1">
          <mxGeometry width="50" height="50" relative="1" as="geometry">
            <mxPoint x="546" y="120" as="sourcePoint" />
            <mxPoint x="710" y="120" as="targetPoint" />
          </mxGeometry>
        </mxCell>
        <mxCell id="6JE3I8eEDpICr71EeEou-27" value="&lt;div&gt;.VCF&lt;/div&gt;&lt;div&gt;Sample&lt;/div&gt;(with GLs)" style="shape=note;whiteSpace=wrap;html=1;backgroundOutline=1;darkOpacity=0.05;" vertex="1" parent="1">
          <mxGeometry x="923" y="220" width="80" height="100" as="geometry" />
        </mxCell>
        <mxCell id="6JE3I8eEDpICr71EeEou-32" value="" style="rounded=1;whiteSpace=wrap;html=1;fillColor=#f5f5f5;strokeColor=#666666;fontColor=#333333;" vertex="1" parent="1">
          <mxGeometry x="350" y="330" width="290" height="360" as="geometry" />
        </mxCell>
        <mxCell id="6JE3I8eEDpICr71EeEou-33" value="Chunking chromosomes (one time only)" style="text;html=1;strokeColor=none;fillColor=none;align=center;verticalAlign=middle;whiteSpace=wrap;rounded=0;" vertex="1" parent="1">
          <mxGeometry x="330" y="329" width="340" height="30" as="geometry" />
        </mxCell>
        <mxCell id="6JE3I8eEDpICr71EeEou-37" style="edgeStyle=orthogonalEdgeStyle;rounded=0;orthogonalLoop=1;jettySize=auto;html=1;" edge="1" parent="1" source="6JE3I8eEDpICr71EeEou-35" target="6JE3I8eEDpICr71EeEou-36">
          <mxGeometry relative="1" as="geometry" />
        </mxCell>
        <mxCell id="6JE3I8eEDpICr71EeEou-35" value="&lt;div&gt;.VCF&lt;/div&gt;&lt;div&gt;Reference&lt;/div&gt;&lt;div&gt;Panel&lt;/div&gt;&lt;div&gt;(variable positions)&lt;/div&gt;" style="shape=note;whiteSpace=wrap;html=1;backgroundOutline=1;darkOpacity=0.05;size=35;" vertex="1" parent="1">
          <mxGeometry x="455" y="370" width="80" height="100" as="geometry" />
        </mxCell>
        <mxCell id="6JE3I8eEDpICr71EeEou-36" value="&lt;div&gt;.TXT&lt;/div&gt;&lt;div&gt;Chunks per chromosome&lt;br&gt;&lt;/div&gt;" style="shape=note;whiteSpace=wrap;html=1;backgroundOutline=1;darkOpacity=0.05;size=35;" vertex="1" parent="1">
          <mxGeometry x="455" y="570" width="80" height="100" as="geometry" />
        </mxCell>
        <mxCell id="6JE3I8eEDpICr71EeEou-38" value="" style="ellipse;whiteSpace=wrap;html=1;aspect=fixed;" vertex="1" parent="1">
          <mxGeometry x="486" y="506" width="20" height="20" as="geometry" />
        </mxCell>
        <mxCell id="6JE3I8eEDpICr71EeEou-39" value="GLIMPSE chunk" style="text;html=1;strokeColor=none;fillColor=none;align=center;verticalAlign=middle;whiteSpace=wrap;rounded=0;" vertex="1" parent="1">
          <mxGeometry x="506" y="501" width="60" height="30" as="geometry" />
        </mxCell>
        <mxCell id="6JE3I8eEDpICr71EeEou-40" value="" style="rounded=1;whiteSpace=wrap;html=1;fillColor=#f5f5f5;strokeColor=#666666;fontColor=#333333;" vertex="1" parent="1">
          <mxGeometry x="1060" y="190" width="580" height="490" as="geometry" />
        </mxCell>
        <mxCell id="6JE3I8eEDpICr71EeEou-41" value="Imputation per sample (GLIMPSE1)" style="text;html=1;strokeColor=none;fillColor=none;align=center;verticalAlign=middle;whiteSpace=wrap;rounded=0;" vertex="1" parent="1">
          <mxGeometry x="1172" y="191" width="340" height="30" as="geometry" />
        </mxCell>
        <mxCell id="6JE3I8eEDpICr71EeEou-65" style="edgeStyle=orthogonalEdgeStyle;rounded=0;orthogonalLoop=1;jettySize=auto;html=1;entryX=0;entryY=0.5;entryDx=0;entryDy=0;entryPerimeter=0;" edge="1" parent="1" source="6JE3I8eEDpICr71EeEou-42" target="6JE3I8eEDpICr71EeEou-48">
          <mxGeometry relative="1" as="geometry">
            <Array as="points">
              <mxPoint x="1190" y="266" />
              <mxPoint x="1190" y="370" />
            </Array>
          </mxGeometry>
        </mxCell>
        <mxCell id="6JE3I8eEDpICr71EeEou-42" value="&lt;div&gt;.VCF&lt;/div&gt;&lt;div&gt;Sample&lt;/div&gt;(with GLs)" style="shape=note;whiteSpace=wrap;html=1;backgroundOutline=1;darkOpacity=0.05;" vertex="1" parent="1">
          <mxGeometry x="1080" y="216" width="80" height="100" as="geometry" />
        </mxCell>
        <mxCell id="6JE3I8eEDpICr71EeEou-64" style="edgeStyle=orthogonalEdgeStyle;rounded=0;orthogonalLoop=1;jettySize=auto;html=1;" edge="1" parent="1" source="6JE3I8eEDpICr71EeEou-43" target="6JE3I8eEDpICr71EeEou-48">
          <mxGeometry relative="1" as="geometry" />
        </mxCell>
        <mxCell id="6JE3I8eEDpICr71EeEou-43" value="&lt;div&gt;.BCF&lt;/div&gt;&lt;div&gt;Reference&lt;/div&gt;&lt;div&gt;Panel&lt;br&gt;&lt;/div&gt;" style="shape=note;whiteSpace=wrap;html=1;backgroundOutline=1;darkOpacity=0.05;fillColor=#fff2cc;strokeColor=#d6b656;" vertex="1" parent="1">
          <mxGeometry x="1080" y="320" width="80" height="100" as="geometry" />
        </mxCell>
        <mxCell id="6JE3I8eEDpICr71EeEou-66" style="edgeStyle=orthogonalEdgeStyle;rounded=0;orthogonalLoop=1;jettySize=auto;html=1;entryX=-0.012;entryY=0.69;entryDx=0;entryDy=0;entryPerimeter=0;" edge="1" parent="1" source="6JE3I8eEDpICr71EeEou-67" target="6JE3I8eEDpICr71EeEou-46">
          <mxGeometry relative="1" as="geometry">
            <Array as="points">
              <mxPoint x="1260" y="370" />
              <mxPoint x="1260" y="360" />
            </Array>
          </mxGeometry>
        </mxCell>
        <mxCell id="6JE3I8eEDpICr71EeEou-44" value="Genetic map" style="shape=note;whiteSpace=wrap;html=1;backgroundOutline=1;darkOpacity=0.05;" vertex="1" parent="1">
          <mxGeometry x="1080" y="431" width="80" height="100" as="geometry" />
        </mxCell>
        <mxCell id="6JE3I8eEDpICr71EeEou-46" value="&lt;div&gt;.VCF&lt;/div&gt;&lt;div&gt;Sample&lt;/div&gt;(with GLs)" style="shape=note;whiteSpace=wrap;html=1;backgroundOutline=1;darkOpacity=0.05;" vertex="1" parent="1">
          <mxGeometry x="1260" y="300" width="80" height="100" as="geometry" />
        </mxCell>
        <mxCell id="6JE3I8eEDpICr71EeEou-47" value="&lt;div&gt;.VCF&lt;/div&gt;&lt;div&gt;Sample&lt;/div&gt;(with GLs)" style="shape=note;whiteSpace=wrap;html=1;backgroundOutline=1;darkOpacity=0.05;" vertex="1" parent="1">
          <mxGeometry x="1271" y="310" width="80" height="100" as="geometry" />
        </mxCell>
        <mxCell id="6JE3I8eEDpICr71EeEou-48" value="&lt;div&gt;.VCF&lt;/div&gt;&lt;div&gt;(imputed per chunk)&lt;br&gt;&lt;/div&gt;" style="shape=note;whiteSpace=wrap;html=1;backgroundOutline=1;darkOpacity=0.05;" vertex="1" parent="1">
          <mxGeometry x="1280" y="320" width="80" height="100" as="geometry" />
        </mxCell>
        <mxCell id="6JE3I8eEDpICr71EeEou-52" value="" style="endArrow=classic;html=1;rounded=0;dashed=1;" edge="1" parent="1">
          <mxGeometry width="50" height="50" relative="1" as="geometry">
            <mxPoint x="990" y="274" as="sourcePoint" />
            <mxPoint x="1080" y="274" as="targetPoint" />
          </mxGeometry>
        </mxCell>
        <mxCell id="6JE3I8eEDpICr71EeEou-56" style="edgeStyle=orthogonalEdgeStyle;rounded=0;orthogonalLoop=1;jettySize=auto;html=1;entryX=0;entryY=0.5;entryDx=0;entryDy=0;entryPerimeter=0;" edge="1" parent="1" source="6JE3I8eEDpICr71EeEou-53" target="6JE3I8eEDpICr71EeEou-54">
          <mxGeometry relative="1" as="geometry" />
        </mxCell>
        <mxCell id="6JE3I8eEDpICr71EeEou-53" value="&lt;div&gt;.VCF&lt;/div&gt;&lt;div&gt;(imputed per chunk)&lt;br&gt;&lt;/div&gt;" style="shape=note;whiteSpace=wrap;html=1;backgroundOutline=1;darkOpacity=0.05;" vertex="1" parent="1">
          <mxGeometry x="1290" y="330" width="80" height="100" as="geometry" />
        </mxCell>
        <mxCell id="6JE3I8eEDpICr71EeEou-57" style="edgeStyle=orthogonalEdgeStyle;rounded=0;orthogonalLoop=1;jettySize=auto;html=1;entryX=0;entryY=0.5;entryDx=0;entryDy=0;entryPerimeter=0;" edge="1" parent="1" source="6JE3I8eEDpICr71EeEou-54" target="6JE3I8eEDpICr71EeEou-55">
          <mxGeometry relative="1" as="geometry" />
        </mxCell>
        <mxCell id="6JE3I8eEDpICr71EeEou-54" value="&lt;div&gt;.VCF&lt;/div&gt;&lt;div&gt;(ligated)&lt;br&gt;&lt;/div&gt;" style="shape=note;whiteSpace=wrap;html=1;backgroundOutline=1;darkOpacity=0.05;" vertex="1" parent="1">
          <mxGeometry x="1420" y="330" width="80" height="100" as="geometry" />
        </mxCell>
        <mxCell id="6JE3I8eEDpICr71EeEou-55" value="&lt;div&gt;.VCF&lt;/div&gt;&lt;div&gt;(haplotypes sampled)&lt;br&gt;&lt;/div&gt;" style="shape=note;whiteSpace=wrap;html=1;backgroundOutline=1;darkOpacity=0.05;" vertex="1" parent="1">
          <mxGeometry x="1550" y="330" width="80" height="100" as="geometry" />
        </mxCell>
        <mxCell id="6JE3I8eEDpICr71EeEou-58" value="" style="ellipse;whiteSpace=wrap;html=1;aspect=fixed;" vertex="1" parent="1">
          <mxGeometry x="1380" y="371" width="20" height="20" as="geometry" />
        </mxCell>
        <mxCell id="6JE3I8eEDpICr71EeEou-62" value="" style="ellipse;whiteSpace=wrap;html=1;aspect=fixed;" vertex="1" parent="1">
          <mxGeometry x="1512" y="370" width="20" height="20" as="geometry" />
        </mxCell>
        <mxCell id="6JE3I8eEDpICr71EeEou-63" value="&lt;font style=&quot;font-size: 10px;&quot;&gt;GLIMPSE phase&lt;/font&gt;" style="text;html=1;strokeColor=none;fillColor=none;align=center;verticalAlign=middle;whiteSpace=wrap;rounded=0;rotation=-45;" vertex="1" parent="1">
          <mxGeometry x="1190" y="320" width="60" height="30" as="geometry" />
        </mxCell>
        <mxCell id="6JE3I8eEDpICr71EeEou-68" value="" style="edgeStyle=orthogonalEdgeStyle;rounded=0;orthogonalLoop=1;jettySize=auto;html=1;entryX=0;entryY=0.5;entryDx=0;entryDy=0;entryPerimeter=0;" edge="1" parent="1" source="6JE3I8eEDpICr71EeEou-44" target="6JE3I8eEDpICr71EeEou-67">
          <mxGeometry relative="1" as="geometry">
            <mxPoint x="1160" y="481" as="sourcePoint" />
            <mxPoint x="1271" y="360" as="targetPoint" />
            <Array as="points">
              <mxPoint x="1190" y="481" />
            </Array>
          </mxGeometry>
        </mxCell>
        <mxCell id="6JE3I8eEDpICr71EeEou-67" value="" style="ellipse;whiteSpace=wrap;html=1;aspect=fixed;" vertex="1" parent="1">
          <mxGeometry x="1180" y="360" width="20" height="20" as="geometry" />
        </mxCell>
        <mxCell id="6JE3I8eEDpICr71EeEou-69" value="&lt;div&gt;&lt;font style=&quot;font-size: 10px;&quot;&gt;GLIMPSE ligate&lt;/font&gt;&lt;/div&gt;" style="text;html=1;strokeColor=none;fillColor=none;align=center;verticalAlign=middle;whiteSpace=wrap;rounded=0;rotation=-45;" vertex="1" parent="1">
          <mxGeometry x="1367" y="329" width="60" height="30" as="geometry" />
        </mxCell>
        <mxCell id="6JE3I8eEDpICr71EeEou-70" value="&lt;div&gt;&lt;font style=&quot;font-size: 10px;&quot;&gt;GLIMPSE sample&lt;/font&gt;&lt;/div&gt;" style="text;html=1;strokeColor=none;fillColor=none;align=center;verticalAlign=middle;whiteSpace=wrap;rounded=0;rotation=-45;" vertex="1" parent="1">
          <mxGeometry x="1499" y="321" width="60" height="30" as="geometry" />
        </mxCell>
        <mxCell id="6JE3I8eEDpICr71EeEou-73" style="edgeStyle=orthogonalEdgeStyle;rounded=0;orthogonalLoop=1;jettySize=auto;html=1;entryX=0.5;entryY=1;entryDx=0;entryDy=0;endArrow=none;endFill=0;" edge="1" parent="1" source="6JE3I8eEDpICr71EeEou-71" target="6JE3I8eEDpICr71EeEou-67">
          <mxGeometry relative="1" as="geometry" />
        </mxCell>
        <mxCell id="6JE3I8eEDpICr71EeEou-71" value="&lt;div&gt;.TXT&lt;/div&gt;&lt;div&gt;Chunks per chromosome&lt;br&gt;&lt;/div&gt;" style="shape=note;whiteSpace=wrap;html=1;backgroundOutline=1;darkOpacity=0.05;size=35;" vertex="1" parent="1">
          <mxGeometry x="1080" y="550" width="80" height="100" as="geometry" />
        </mxCell>
        <mxCell id="6JE3I8eEDpICr71EeEou-72" value="" style="endArrow=classic;html=1;rounded=0;dashed=1;exitX=0;exitY=0;exitDx=80;exitDy=35;exitPerimeter=0;" edge="1" parent="1" source="6JE3I8eEDpICr71EeEou-36">
          <mxGeometry width="50" height="50" relative="1" as="geometry">
            <mxPoint x="570" y="600" as="sourcePoint" />
            <mxPoint x="1050" y="605" as="targetPoint" />
          </mxGeometry>
        </mxCell>
        <mxCell id="6JE3I8eEDpICr71EeEou-74" value="" style="rounded=1;whiteSpace=wrap;html=1;fillColor=#f5f5f5;strokeColor=#666666;fontColor=#333333;" vertex="1" parent="1">
          <mxGeometry x="1060" y="692" width="570" height="450" as="geometry" />
        </mxCell>
        <mxCell id="6JE3I8eEDpICr71EeEou-75" value="Imputation per sample (STITCH)" style="text;html=1;strokeColor=none;fillColor=none;align=center;verticalAlign=middle;whiteSpace=wrap;rounded=0;" vertex="1" parent="1">
          <mxGeometry x="1175" y="700" width="340" height="30" as="geometry" />
        </mxCell>
        <mxCell id="6JE3I8eEDpICr71EeEou-86" style="edgeStyle=orthogonalEdgeStyle;rounded=0;orthogonalLoop=1;jettySize=auto;html=1;entryX=0;entryY=0.5;entryDx=0;entryDy=0;entryPerimeter=0;" edge="1" parent="1" source="6JE3I8eEDpICr71EeEou-77" target="6JE3I8eEDpICr71EeEou-84">
          <mxGeometry relative="1" as="geometry" />
        </mxCell>
        <mxCell id="6JE3I8eEDpICr71EeEou-77" value="&lt;div&gt;.TXT&lt;/div&gt;&lt;div&gt;Chunks per chromosome&lt;/div&gt;" style="shape=note;whiteSpace=wrap;html=1;backgroundOutline=1;darkOpacity=0.05;size=35;" vertex="1" parent="1">
          <mxGeometry x="1083" y="975" width="80" height="100" as="geometry" />
        </mxCell>
        <mxCell id="6JE3I8eEDpICr71EeEou-79" value="POSFILE" style="text;html=1;strokeColor=none;fillColor=none;align=center;verticalAlign=middle;whiteSpace=wrap;rounded=0;" vertex="1" parent="1">
          <mxGeometry x="1088" y="942" width="60" height="30" as="geometry" />
        </mxCell>
        <mxCell id="6JE3I8eEDpICr71EeEou-88" style="edgeStyle=orthogonalEdgeStyle;rounded=0;orthogonalLoop=1;jettySize=auto;html=1;entryX=0;entryY=0.5;entryDx=0;entryDy=0;entryPerimeter=0;" edge="1" parent="1" source="6JE3I8eEDpICr71EeEou-80" target="6JE3I8eEDpICr71EeEou-84">
          <mxGeometry relative="1" as="geometry" />
        </mxCell>
        <mxCell id="6JE3I8eEDpICr71EeEou-80" value="&lt;div&gt;sample&lt;br&gt;&lt;/div&gt;&lt;div&gt;.BAM&lt;/div&gt;" style="shape=note;whiteSpace=wrap;html=1;backgroundOutline=1;darkOpacity=0.05;" vertex="1" parent="1">
          <mxGeometry x="1080" y="721" width="80" height="100" as="geometry" />
        </mxCell>
        <mxCell id="6JE3I8eEDpICr71EeEou-81" value="" style="endArrow=classic;html=1;rounded=0;dashed=1;entryX=0;entryY=0.5;entryDx=0;entryDy=0;entryPerimeter=0;" edge="1" parent="1" target="6JE3I8eEDpICr71EeEou-80">
          <mxGeometry width="50" height="50" relative="1" as="geometry">
            <mxPoint x="746" y="500" as="sourcePoint" />
            <mxPoint x="1090" y="794" as="targetPoint" />
            <Array as="points">
              <mxPoint x="750" y="771" />
            </Array>
          </mxGeometry>
        </mxCell>
        <mxCell id="6JE3I8eEDpICr71EeEou-82" value="RegionStart-RegionEnd" style="text;html=1;strokeColor=none;fillColor=none;align=center;verticalAlign=middle;whiteSpace=wrap;rounded=0;" vertex="1" parent="1">
          <mxGeometry x="1092" y="1081" width="60" height="30" as="geometry" />
        </mxCell>
        <mxCell id="6JE3I8eEDpICr71EeEou-87" style="edgeStyle=orthogonalEdgeStyle;rounded=0;orthogonalLoop=1;jettySize=auto;html=1;entryX=0;entryY=0.5;entryDx=0;entryDy=0;entryPerimeter=0;" edge="1" parent="1" source="6JE3I8eEDpICr71EeEou-83" target="6JE3I8eEDpICr71EeEou-84">
          <mxGeometry relative="1" as="geometry" />
        </mxCell>
        <mxCell id="6JE3I8eEDpICr71EeEou-83" value="&lt;div&gt;.TSV&lt;/div&gt;&lt;div&gt;Reference&lt;/div&gt;&lt;div&gt;Panel&lt;/div&gt;&lt;div&gt;(variable positions)&lt;/div&gt;" style="shape=note;whiteSpace=wrap;html=1;backgroundOutline=1;darkOpacity=0.05;fillColor=#fad9d5;strokeColor=#ae4132;" vertex="1" parent="1">
          <mxGeometry x="1080" y="846" width="80" height="100" as="geometry" />
        </mxCell>
        <mxCell id="6JE3I8eEDpICr71EeEou-223" style="edgeStyle=orthogonalEdgeStyle;rounded=0;orthogonalLoop=1;jettySize=auto;html=1;entryX=0;entryY=0.25;entryDx=0;entryDy=0;" edge="1" parent="1" source="6JE3I8eEDpICr71EeEou-84" target="6JE3I8eEDpICr71EeEou-216">
          <mxGeometry relative="1" as="geometry" />
        </mxCell>
        <mxCell id="6JE3I8eEDpICr71EeEou-84" value="&lt;div&gt;.VCF&lt;/div&gt;&lt;div&gt;(imputed per chunk)&lt;br&gt;&lt;/div&gt;" style="shape=note;whiteSpace=wrap;html=1;backgroundOutline=1;darkOpacity=0.05;" vertex="1" parent="1">
          <mxGeometry x="1260" y="846" width="80" height="100" as="geometry" />
        </mxCell>
        <mxCell id="6JE3I8eEDpICr71EeEou-89" style="edgeStyle=orthogonalEdgeStyle;rounded=0;orthogonalLoop=1;jettySize=auto;html=1;entryX=0;entryY=0.5;entryDx=0;entryDy=0;entryPerimeter=0;" edge="1" parent="1" source="6JE3I8eEDpICr71EeEou-85" target="6JE3I8eEDpICr71EeEou-84">
          <mxGeometry relative="1" as="geometry">
            <Array as="points">
              <mxPoint x="1210" y="896" />
            </Array>
          </mxGeometry>
        </mxCell>
        <mxCell id="6JE3I8eEDpICr71EeEou-85" value="other params" style="rounded=1;whiteSpace=wrap;html=1;" vertex="1" parent="1">
          <mxGeometry x="1170" y="1091" width="90" height="30" as="geometry" />
        </mxCell>
        <mxCell id="6JE3I8eEDpICr71EeEou-90" value="" style="ellipse;whiteSpace=wrap;html=1;aspect=fixed;" vertex="1" parent="1">
          <mxGeometry x="1203" y="886" width="20" height="20" as="geometry" />
        </mxCell>
        <mxCell id="6JE3I8eEDpICr71EeEou-92" value="STITCH" style="text;html=1;strokeColor=none;fillColor=none;align=center;verticalAlign=middle;whiteSpace=wrap;rounded=0;rotation=-45;" vertex="1" parent="1">
          <mxGeometry x="1206" y="853" width="60" height="30" as="geometry" />
        </mxCell>
        <mxCell id="6JE3I8eEDpICr71EeEou-94" style="edgeStyle=orthogonalEdgeStyle;rounded=0;orthogonalLoop=1;jettySize=auto;html=1;entryX=0;entryY=0.5;entryDx=0;entryDy=0;entryPerimeter=0;" edge="1" parent="1" target="6JE3I8eEDpICr71EeEou-1">
          <mxGeometry relative="1" as="geometry">
            <mxPoint x="688.4999999999995" y="450" as="sourcePoint" />
          </mxGeometry>
        </mxCell>
        <mxCell id="6JE3I8eEDpICr71EeEou-93" value="&lt;font style=&quot;font-size: 14px;&quot;&gt;&lt;b&gt;sarek&lt;/b&gt;&lt;/font&gt;" style="rounded=1;whiteSpace=wrap;html=1;rotation=-90;fontColor=#0B7319;" vertex="1" parent="1">
          <mxGeometry x="646" y="438.5" width="64" height="23" as="geometry" />
        </mxCell>
        <mxCell id="6JE3I8eEDpICr71EeEou-95" value="" style="rounded=1;whiteSpace=wrap;html=1;fillColor=#f5f5f5;strokeColor=#666666;fontColor=#333333;" vertex="1" parent="1">
          <mxGeometry x="1047" y="1191" width="583" height="440" as="geometry" />
        </mxCell>
        <mxCell id="6JE3I8eEDpICr71EeEou-96" value="Imputation per sample (QUILT)" style="text;html=1;strokeColor=none;fillColor=none;align=center;verticalAlign=middle;whiteSpace=wrap;rounded=0;" vertex="1" parent="1">
          <mxGeometry x="1167" y="1191" width="340" height="30" as="geometry" />
        </mxCell>
        <mxCell id="6JE3I8eEDpICr71EeEou-97" style="edgeStyle=orthogonalEdgeStyle;rounded=0;orthogonalLoop=1;jettySize=auto;html=1;entryX=0;entryY=0.5;entryDx=0;entryDy=0;entryPerimeter=0;" edge="1" parent="1" source="6JE3I8eEDpICr71EeEou-98" target="6JE3I8eEDpICr71EeEou-105">
          <mxGeometry relative="1" as="geometry" />
        </mxCell>
        <mxCell id="6JE3I8eEDpICr71EeEou-98" value="&lt;div&gt;.TXT&lt;/div&gt;&lt;div&gt;Chunks per chromosome&lt;/div&gt;" style="shape=note;whiteSpace=wrap;html=1;backgroundOutline=1;darkOpacity=0.05;size=35;" vertex="1" parent="1">
          <mxGeometry x="1070" y="1465" width="80" height="100" as="geometry" />
        </mxCell>
        <mxCell id="6JE3I8eEDpICr71EeEou-99" value="POSFILE" style="text;html=1;strokeColor=none;fillColor=none;align=center;verticalAlign=middle;whiteSpace=wrap;rounded=0;" vertex="1" parent="1">
          <mxGeometry x="1075" y="1432" width="60" height="30" as="geometry" />
        </mxCell>
        <mxCell id="6JE3I8eEDpICr71EeEou-100" style="edgeStyle=orthogonalEdgeStyle;rounded=0;orthogonalLoop=1;jettySize=auto;html=1;entryX=0;entryY=0.5;entryDx=0;entryDy=0;entryPerimeter=0;" edge="1" parent="1" source="6JE3I8eEDpICr71EeEou-101" target="6JE3I8eEDpICr71EeEou-105">
          <mxGeometry relative="1" as="geometry" />
        </mxCell>
        <mxCell id="6JE3I8eEDpICr71EeEou-101" value="&lt;div&gt;sample&lt;br&gt;&lt;/div&gt;&lt;div&gt;.BAM&lt;/div&gt;" style="shape=note;whiteSpace=wrap;html=1;backgroundOutline=1;darkOpacity=0.05;" vertex="1" parent="1">
          <mxGeometry x="1067" y="1211" width="80" height="100" as="geometry" />
        </mxCell>
        <mxCell id="6JE3I8eEDpICr71EeEou-102" value="RegionStart-RegionEnd" style="text;html=1;strokeColor=none;fillColor=none;align=center;verticalAlign=middle;whiteSpace=wrap;rounded=0;" vertex="1" parent="1">
          <mxGeometry x="1079" y="1571" width="60" height="30" as="geometry" />
        </mxCell>
        <mxCell id="6JE3I8eEDpICr71EeEou-103" style="edgeStyle=orthogonalEdgeStyle;rounded=0;orthogonalLoop=1;jettySize=auto;html=1;entryX=0;entryY=0.5;entryDx=0;entryDy=0;entryPerimeter=0;" edge="1" parent="1" source="6JE3I8eEDpICr71EeEou-104" target="6JE3I8eEDpICr71EeEou-105">
          <mxGeometry relative="1" as="geometry" />
        </mxCell>
        <mxCell id="6JE3I8eEDpICr71EeEou-104" value="&lt;div&gt;.TSV&lt;/div&gt;&lt;div&gt;Reference&lt;/div&gt;&lt;div&gt;Panel&lt;/div&gt;&lt;div&gt;(variable positions)&lt;/div&gt;" style="shape=note;whiteSpace=wrap;html=1;backgroundOutline=1;darkOpacity=0.05;fillColor=#fad9d5;strokeColor=#ae4132;" vertex="1" parent="1">
          <mxGeometry x="1067" y="1336" width="80" height="100" as="geometry" />
        </mxCell>
        <mxCell id="6JE3I8eEDpICr71EeEou-224" style="edgeStyle=orthogonalEdgeStyle;rounded=0;orthogonalLoop=1;jettySize=auto;html=1;entryX=0;entryY=0.25;entryDx=0;entryDy=0;" edge="1" parent="1" source="6JE3I8eEDpICr71EeEou-105" target="6JE3I8eEDpICr71EeEou-219">
          <mxGeometry relative="1" as="geometry" />
        </mxCell>
        <mxCell id="6JE3I8eEDpICr71EeEou-105" value="&lt;div&gt;.VCF&lt;/div&gt;&lt;div&gt;(imputed per chunk)&lt;br&gt;&lt;/div&gt;" style="shape=note;whiteSpace=wrap;html=1;backgroundOutline=1;darkOpacity=0.05;" vertex="1" parent="1">
          <mxGeometry x="1247" y="1336" width="80" height="100" as="geometry" />
        </mxCell>
        <mxCell id="6JE3I8eEDpICr71EeEou-106" style="edgeStyle=orthogonalEdgeStyle;rounded=0;orthogonalLoop=1;jettySize=auto;html=1;entryX=0;entryY=0.5;entryDx=0;entryDy=0;entryPerimeter=0;" edge="1" parent="1" source="6JE3I8eEDpICr71EeEou-107" target="6JE3I8eEDpICr71EeEou-105">
          <mxGeometry relative="1" as="geometry">
            <Array as="points">
              <mxPoint x="1197" y="1386" />
            </Array>
          </mxGeometry>
        </mxCell>
        <mxCell id="6JE3I8eEDpICr71EeEou-107" value="other params" style="rounded=1;whiteSpace=wrap;html=1;" vertex="1" parent="1">
          <mxGeometry x="1157" y="1581" width="90" height="30" as="geometry" />
        </mxCell>
        <mxCell id="6JE3I8eEDpICr71EeEou-109" value="QUILT" style="text;html=1;strokeColor=none;fillColor=none;align=center;verticalAlign=middle;whiteSpace=wrap;rounded=0;rotation=-45;" vertex="1" parent="1">
          <mxGeometry x="1193" y="1343" width="60" height="30" as="geometry" />
        </mxCell>
        <mxCell id="6JE3I8eEDpICr71EeEou-110" value="" style="endArrow=classic;html=1;rounded=0;dashed=1;" edge="1" parent="1">
          <mxGeometry width="50" height="50" relative="1" as="geometry">
            <mxPoint x="749" y="766.92" as="sourcePoint" />
            <mxPoint x="1043" y="1261" as="targetPoint" />
            <Array as="points">
              <mxPoint x="749" y="1261" />
            </Array>
          </mxGeometry>
        </mxCell>
        <mxCell id="6JE3I8eEDpICr71EeEou-111" value="" style="group" vertex="1" connectable="0" parent="1">
          <mxGeometry x="722" y="400" width="90" height="100" as="geometry" />
        </mxCell>
        <mxCell id="6JE3I8eEDpICr71EeEou-112" value="" style="shape=note;whiteSpace=wrap;html=1;backgroundOutline=1;darkOpacity=0.05;rounded=1;size=20;strokeWidth=2;" vertex="1" parent="6JE3I8eEDpICr71EeEou-111">
          <mxGeometry x="5" width="80" height="100" as="geometry" />
        </mxCell>
        <mxCell id="6JE3I8eEDpICr71EeEou-113" value="&lt;font size=&quot;1&quot; face=&quot;Maven Pro&quot;&gt;&lt;b style=&quot;font-size: 20px;&quot;&gt;BAM&lt;/b&gt;&lt;/font&gt;" style="rounded=1;whiteSpace=wrap;html=1;strokeWidth=2;fillColor=#d5e8d4;strokeColor=#82b366;" vertex="1" parent="6JE3I8eEDpICr71EeEou-111">
          <mxGeometry y="40" width="90" height="40" as="geometry" />
        </mxCell>
        <mxCell id="6JE3I8eEDpICr71EeEou-114" value="" style="group" vertex="1" connectable="0" parent="1">
          <mxGeometry x="918" y="221" width="90" height="100" as="geometry" />
        </mxCell>
        <mxCell id="6JE3I8eEDpICr71EeEou-115" value="" style="shape=note;whiteSpace=wrap;html=1;backgroundOutline=1;darkOpacity=0.05;rounded=1;size=20;strokeWidth=2;" vertex="1" parent="6JE3I8eEDpICr71EeEou-114">
          <mxGeometry x="5" width="80" height="100" as="geometry" />
        </mxCell>
        <mxCell id="6JE3I8eEDpICr71EeEou-116" value="&lt;font size=&quot;1&quot; face=&quot;Maven Pro&quot;&gt;&lt;b style=&quot;font-size: 20px;&quot;&gt;VCF&lt;/b&gt;&lt;/font&gt;" style="rounded=1;whiteSpace=wrap;html=1;strokeWidth=2;fillColor=#d5e8d4;strokeColor=#82b366;" vertex="1" parent="6JE3I8eEDpICr71EeEou-114">
          <mxGeometry y="40" width="90" height="40" as="geometry" />
        </mxCell>
        <mxCell id="6JE3I8eEDpICr71EeEou-117" value="Sample VCF with GLs" style="text;html=1;strokeColor=none;fillColor=none;align=center;verticalAlign=middle;whiteSpace=wrap;rounded=0;" vertex="1" parent="1">
          <mxGeometry x="933" y="330" width="60" height="30" as="geometry" />
        </mxCell>
        <mxCell id="6JE3I8eEDpICr71EeEou-120" value="Sample BAM" style="text;html=1;strokeColor=none;fillColor=none;align=center;verticalAlign=middle;whiteSpace=wrap;rounded=0;" vertex="1" parent="1">
          <mxGeometry x="756" y="506" width="60" height="30" as="geometry" />
        </mxCell>
        <mxCell id="6JE3I8eEDpICr71EeEou-121" value="" style="group" vertex="1" connectable="0" parent="1">
          <mxGeometry x="720" y="290" width="90" height="100" as="geometry" />
        </mxCell>
        <mxCell id="6JE3I8eEDpICr71EeEou-122" value="" style="shape=note;whiteSpace=wrap;html=1;backgroundOutline=1;darkOpacity=0.05;rounded=1;size=20;strokeWidth=2;" vertex="1" parent="6JE3I8eEDpICr71EeEou-121">
          <mxGeometry x="5" width="80" height="100" as="geometry" />
        </mxCell>
        <mxCell id="6JE3I8eEDpICr71EeEou-123" value="&lt;font size=&quot;1&quot; face=&quot;Maven Pro&quot;&gt;&lt;b style=&quot;font-size: 20px;&quot;&gt;FASTA&lt;/b&gt;&lt;/font&gt;" style="rounded=1;whiteSpace=wrap;html=1;strokeWidth=2;fillColor=#dae8fc;strokeColor=#6c8ebf;" vertex="1" parent="6JE3I8eEDpICr71EeEou-121">
          <mxGeometry y="40" width="90" height="40" as="geometry" />
        </mxCell>
        <mxCell id="6JE3I8eEDpICr71EeEou-125" value="" style="group" vertex="1" connectable="0" parent="1">
          <mxGeometry x="1077" y="721" width="90" height="100" as="geometry" />
        </mxCell>
        <mxCell id="6JE3I8eEDpICr71EeEou-126" value="" style="shape=note;whiteSpace=wrap;html=1;backgroundOutline=1;darkOpacity=0.05;rounded=1;size=20;strokeWidth=2;" vertex="1" parent="6JE3I8eEDpICr71EeEou-125">
          <mxGeometry x="5" width="80" height="100" as="geometry" />
        </mxCell>
        <mxCell id="6JE3I8eEDpICr71EeEou-127" value="&lt;font size=&quot;1&quot; face=&quot;Maven Pro&quot;&gt;&lt;b style=&quot;font-size: 20px;&quot;&gt;BAM&lt;/b&gt;&lt;/font&gt;" style="rounded=1;whiteSpace=wrap;html=1;strokeWidth=2;fillColor=#d5e8d4;strokeColor=#82b366;" vertex="1" parent="6JE3I8eEDpICr71EeEou-125">
          <mxGeometry y="40" width="90" height="40" as="geometry" />
        </mxCell>
        <mxCell id="6JE3I8eEDpICr71EeEou-150" value="" style="group" vertex="1" connectable="0" parent="1">
          <mxGeometry x="437" y="165" width="100" height="110" as="geometry" />
        </mxCell>
        <mxCell id="6JE3I8eEDpICr71EeEou-151" value="" style="shape=note;whiteSpace=wrap;html=1;backgroundOutline=1;darkOpacity=0.05;rounded=1;size=20;strokeWidth=2;" vertex="1" parent="6JE3I8eEDpICr71EeEou-150">
          <mxGeometry x="15" y="10" width="80" height="100" as="geometry" />
        </mxCell>
        <mxCell id="6JE3I8eEDpICr71EeEou-152" value="&lt;font style=&quot;font-size: 11px;&quot; face=&quot;Maven Pro&quot;&gt;&lt;b&gt;Reference panel positions VCF&lt;/b&gt;&lt;/font&gt;&lt;font style=&quot;font-size: 11px;&quot; face=&quot;Maven Pro&quot;&gt;&lt;b&gt;&lt;br&gt;&lt;/b&gt;&lt;/font&gt;" style="rounded=1;whiteSpace=wrap;html=1;strokeWidth=2;fillColor=#ffe6cc;strokeColor=#d79b00;" vertex="1" parent="6JE3I8eEDpICr71EeEou-150">
          <mxGeometry x="10" y="50" width="90" height="40" as="geometry" />
        </mxCell>
        <mxCell id="6JE3I8eEDpICr71EeEou-156" value="" style="group" vertex="1" connectable="0" parent="1">
          <mxGeometry x="447" y="61" width="90" height="100" as="geometry" />
        </mxCell>
        <mxCell id="6JE3I8eEDpICr71EeEou-157" value="" style="shape=note;whiteSpace=wrap;html=1;backgroundOutline=1;darkOpacity=0.05;rounded=1;size=20;strokeWidth=2;" vertex="1" parent="6JE3I8eEDpICr71EeEou-156">
          <mxGeometry x="5" width="80" height="100" as="geometry" />
        </mxCell>
        <mxCell id="6JE3I8eEDpICr71EeEou-158" value="&lt;font style=&quot;font-size: 11px;&quot;&gt;Reference panel positions TSV&lt;/font&gt;" style="rounded=1;whiteSpace=wrap;html=1;strokeWidth=2;fillColor=#fff2cc;strokeColor=#d6b656;" vertex="1" parent="6JE3I8eEDpICr71EeEou-156">
          <mxGeometry y="40" width="90" height="40" as="geometry" />
        </mxCell>
        <mxCell id="6JE3I8eEDpICr71EeEou-159" value="" style="group" vertex="1" connectable="0" parent="1">
          <mxGeometry x="722" y="60" width="90" height="100" as="geometry" />
        </mxCell>
        <mxCell id="6JE3I8eEDpICr71EeEou-160" value="" style="shape=note;whiteSpace=wrap;html=1;backgroundOutline=1;darkOpacity=0.05;rounded=1;size=20;strokeWidth=2;" vertex="1" parent="6JE3I8eEDpICr71EeEou-159">
          <mxGeometry x="5" width="80" height="100" as="geometry" />
        </mxCell>
        <mxCell id="6JE3I8eEDpICr71EeEou-161" value="&lt;font style=&quot;font-size: 11px;&quot;&gt;Reference panel positions TSV&lt;/font&gt;" style="rounded=1;whiteSpace=wrap;html=1;strokeWidth=2;fillColor=#fff2cc;strokeColor=#d6b656;" vertex="1" parent="6JE3I8eEDpICr71EeEou-159">
          <mxGeometry y="40" width="90" height="40" as="geometry" />
        </mxCell>
        <mxCell id="6JE3I8eEDpICr71EeEou-170" value="" style="group" vertex="1" connectable="0" parent="1">
          <mxGeometry x="1060" y="1211" width="90" height="100" as="geometry" />
        </mxCell>
        <mxCell id="6JE3I8eEDpICr71EeEou-171" value="" style="shape=note;whiteSpace=wrap;html=1;backgroundOutline=1;darkOpacity=0.05;rounded=1;size=20;strokeWidth=2;" vertex="1" parent="6JE3I8eEDpICr71EeEou-170">
          <mxGeometry x="5" width="80" height="100" as="geometry" />
        </mxCell>
        <mxCell id="6JE3I8eEDpICr71EeEou-172" value="&lt;font size=&quot;1&quot; face=&quot;Maven Pro&quot;&gt;&lt;b style=&quot;font-size: 20px;&quot;&gt;BAM&lt;/b&gt;&lt;/font&gt;" style="rounded=1;whiteSpace=wrap;html=1;strokeWidth=2;fillColor=#d5e8d4;strokeColor=#82b366;" vertex="1" parent="6JE3I8eEDpICr71EeEou-170">
          <mxGeometry y="40" width="90" height="40" as="geometry" />
        </mxCell>
        <mxCell id="6JE3I8eEDpICr71EeEou-173" value="" style="group" vertex="1" connectable="0" parent="1">
          <mxGeometry x="1064" y="1336" width="90" height="100" as="geometry" />
        </mxCell>
        <mxCell id="6JE3I8eEDpICr71EeEou-174" value="" style="shape=note;whiteSpace=wrap;html=1;backgroundOutline=1;darkOpacity=0.05;rounded=1;size=20;strokeWidth=2;" vertex="1" parent="6JE3I8eEDpICr71EeEou-173">
          <mxGeometry x="5" width="80" height="100" as="geometry" />
        </mxCell>
        <mxCell id="6JE3I8eEDpICr71EeEou-175" value="&lt;font style=&quot;font-size: 11px;&quot;&gt;Reference panel positions TSV&lt;/font&gt;" style="rounded=1;whiteSpace=wrap;html=1;strokeWidth=2;fillColor=#fff2cc;strokeColor=#d6b656;" vertex="1" parent="6JE3I8eEDpICr71EeEou-173">
          <mxGeometry y="40" width="90" height="40" as="geometry" />
        </mxCell>
        <mxCell id="6JE3I8eEDpICr71EeEou-176" value="" style="group" vertex="1" connectable="0" parent="1">
          <mxGeometry x="712" y="167" width="100" height="110" as="geometry" />
        </mxCell>
        <mxCell id="6JE3I8eEDpICr71EeEou-177" value="" style="shape=note;whiteSpace=wrap;html=1;backgroundOutline=1;darkOpacity=0.05;rounded=1;size=20;strokeWidth=2;" vertex="1" parent="6JE3I8eEDpICr71EeEou-176">
          <mxGeometry x="15" y="10" width="80" height="100" as="geometry" />
        </mxCell>
        <mxCell id="6JE3I8eEDpICr71EeEou-178" value="&lt;font style=&quot;font-size: 11px;&quot; face=&quot;Maven Pro&quot;&gt;&lt;b&gt;Reference panel positions VCF&lt;/b&gt;&lt;/font&gt;&lt;font style=&quot;font-size: 11px;&quot; face=&quot;Maven Pro&quot;&gt;&lt;b&gt;&lt;br&gt;&lt;/b&gt;&lt;/font&gt;" style="rounded=1;whiteSpace=wrap;html=1;strokeWidth=2;fillColor=#ffe6cc;strokeColor=#d79b00;" vertex="1" parent="6JE3I8eEDpICr71EeEou-176">
          <mxGeometry x="10" y="50" width="90" height="40" as="geometry" />
        </mxCell>
        <mxCell id="6JE3I8eEDpICr71EeEou-179" value="" style="group" vertex="1" connectable="0" parent="1">
          <mxGeometry x="1077" y="216" width="90" height="100" as="geometry" />
        </mxCell>
        <mxCell id="6JE3I8eEDpICr71EeEou-180" value="" style="shape=note;whiteSpace=wrap;html=1;backgroundOutline=1;darkOpacity=0.05;rounded=1;size=20;strokeWidth=2;" vertex="1" parent="6JE3I8eEDpICr71EeEou-179">
          <mxGeometry x="5" width="80" height="100" as="geometry" />
        </mxCell>
        <mxCell id="6JE3I8eEDpICr71EeEou-181" value="&lt;font size=&quot;1&quot; face=&quot;Maven Pro&quot;&gt;&lt;b style=&quot;font-size: 20px;&quot;&gt;VCF&lt;/b&gt;&lt;/font&gt;" style="rounded=1;whiteSpace=wrap;html=1;strokeWidth=2;fillColor=#d5e8d4;strokeColor=#82b366;" vertex="1" parent="6JE3I8eEDpICr71EeEou-179">
          <mxGeometry y="40" width="90" height="40" as="geometry" />
        </mxCell>
        <mxCell id="6JE3I8eEDpICr71EeEou-183" value="&lt;b&gt;--mode &lt;/b&gt;preprocessing_reference" style="text;html=1;strokeColor=none;fillColor=none;align=center;verticalAlign=middle;whiteSpace=wrap;rounded=0;fontSize=14;" vertex="1" parent="1">
          <mxGeometry x="60" y="-10" width="250" height="30" as="geometry" />
        </mxCell>
        <mxCell id="6JE3I8eEDpICr71EeEou-184" value="" style="endArrow=classic;html=1;rounded=0;dashed=1;" edge="1" parent="1">
          <mxGeometry width="50" height="50" relative="1" as="geometry">
            <mxPoint x="489.38" y="260" as="sourcePoint" />
            <mxPoint x="489.38" y="370" as="targetPoint" />
          </mxGeometry>
        </mxCell>
        <mxCell id="6JE3I8eEDpICr71EeEou-185" value="" style="group" vertex="1" connectable="0" parent="1">
          <mxGeometry x="440" y="360" width="100" height="110" as="geometry" />
        </mxCell>
        <mxCell id="6JE3I8eEDpICr71EeEou-186" value="" style="shape=note;whiteSpace=wrap;html=1;backgroundOutline=1;darkOpacity=0.05;rounded=1;size=20;strokeWidth=2;" vertex="1" parent="6JE3I8eEDpICr71EeEou-185">
          <mxGeometry x="15" y="10" width="80" height="100" as="geometry" />
        </mxCell>
        <mxCell id="6JE3I8eEDpICr71EeEou-187" value="&lt;font style=&quot;font-size: 11px;&quot; face=&quot;Maven Pro&quot;&gt;&lt;b&gt;Reference panel positions VCF&lt;/b&gt;&lt;/font&gt;&lt;font style=&quot;font-size: 11px;&quot; face=&quot;Maven Pro&quot;&gt;&lt;b&gt;&lt;br&gt;&lt;/b&gt;&lt;/font&gt;" style="rounded=1;whiteSpace=wrap;html=1;strokeWidth=2;fillColor=#ffe6cc;strokeColor=#d79b00;" vertex="1" parent="6JE3I8eEDpICr71EeEou-185">
          <mxGeometry x="10" y="50" width="90" height="40" as="geometry" />
        </mxCell>
        <mxCell id="6JE3I8eEDpICr71EeEou-189" value="" style="group" vertex="1" connectable="0" parent="1">
          <mxGeometry x="1077" y="848" width="90" height="100" as="geometry" />
        </mxCell>
        <mxCell id="6JE3I8eEDpICr71EeEou-190" value="" style="shape=note;whiteSpace=wrap;html=1;backgroundOutline=1;darkOpacity=0.05;rounded=1;size=20;strokeWidth=2;" vertex="1" parent="6JE3I8eEDpICr71EeEou-189">
          <mxGeometry x="5" width="80" height="100" as="geometry" />
        </mxCell>
        <mxCell id="6JE3I8eEDpICr71EeEou-191" value="&lt;font style=&quot;font-size: 11px;&quot;&gt;Reference panel positions TSV&lt;/font&gt;" style="rounded=1;whiteSpace=wrap;html=1;strokeWidth=2;fillColor=#fff2cc;strokeColor=#d6b656;" vertex="1" parent="6JE3I8eEDpICr71EeEou-189">
          <mxGeometry y="40" width="90" height="40" as="geometry" />
        </mxCell>
        <mxCell id="6JE3I8eEDpICr71EeEou-192" value="&lt;b&gt;--mode &lt;/b&gt;imputation &lt;i&gt;--&lt;/i&gt;&lt;b&gt;tool&lt;/b&gt; (&lt;i&gt;GLIMPSE1, GLIMPSE2, STITCH, etc&lt;/i&gt;)" style="text;html=1;strokeColor=none;fillColor=none;align=center;verticalAlign=middle;whiteSpace=wrap;rounded=0;fontSize=14;" vertex="1" parent="1">
          <mxGeometry x="775" y="-20" width="465" height="30" as="geometry" />
        </mxCell>
        <mxCell id="6JE3I8eEDpICr71EeEou-193" value="" style="group" vertex="1" connectable="0" parent="1">
          <mxGeometry x="442" y="560" width="100" height="110" as="geometry" />
        </mxCell>
        <mxCell id="6JE3I8eEDpICr71EeEou-194" value="" style="shape=note;whiteSpace=wrap;html=1;backgroundOutline=1;darkOpacity=0.05;rounded=1;size=20;strokeWidth=2;" vertex="1" parent="6JE3I8eEDpICr71EeEou-193">
          <mxGeometry x="15" y="10" width="80" height="100" as="geometry" />
        </mxCell>
        <mxCell id="6JE3I8eEDpICr71EeEou-195" value="&lt;font style=&quot;font-size: 13px;&quot;&gt;Chunks TXT&lt;/font&gt;" style="rounded=1;whiteSpace=wrap;html=1;strokeWidth=2;fillColor=#d0cee2;strokeColor=#56517e;" vertex="1" parent="6JE3I8eEDpICr71EeEou-193">
          <mxGeometry x="10" y="50" width="90" height="40" as="geometry" />
        </mxCell>
        <mxCell id="6JE3I8eEDpICr71EeEou-198" value="" style="group" vertex="1" connectable="0" parent="1">
          <mxGeometry x="1068" y="965" width="100" height="110" as="geometry" />
        </mxCell>
        <mxCell id="6JE3I8eEDpICr71EeEou-199" value="" style="shape=note;whiteSpace=wrap;html=1;backgroundOutline=1;darkOpacity=0.05;rounded=1;size=20;strokeWidth=2;" vertex="1" parent="6JE3I8eEDpICr71EeEou-198">
          <mxGeometry x="15" y="10" width="80" height="100" as="geometry" />
        </mxCell>
        <mxCell id="6JE3I8eEDpICr71EeEou-200" value="&lt;font style=&quot;font-size: 13px;&quot;&gt;Chunks TXT&lt;/font&gt;" style="rounded=1;whiteSpace=wrap;html=1;strokeWidth=2;fillColor=#d0cee2;strokeColor=#56517e;" vertex="1" parent="6JE3I8eEDpICr71EeEou-198">
          <mxGeometry x="10" y="50" width="90" height="40" as="geometry" />
        </mxCell>
        <mxCell id="6JE3I8eEDpICr71EeEou-201" value="" style="group" vertex="1" connectable="0" parent="1">
          <mxGeometry x="1053" y="1457" width="100" height="110" as="geometry" />
        </mxCell>
        <mxCell id="6JE3I8eEDpICr71EeEou-202" value="" style="shape=note;whiteSpace=wrap;html=1;backgroundOutline=1;darkOpacity=0.05;rounded=1;size=20;strokeWidth=2;" vertex="1" parent="6JE3I8eEDpICr71EeEou-201">
          <mxGeometry x="15" y="10" width="80" height="100" as="geometry" />
        </mxCell>
        <mxCell id="6JE3I8eEDpICr71EeEou-203" value="&lt;font style=&quot;font-size: 13px;&quot;&gt;Chunks TXT&lt;/font&gt;" style="rounded=1;whiteSpace=wrap;html=1;strokeWidth=2;fillColor=#d0cee2;strokeColor=#56517e;" vertex="1" parent="6JE3I8eEDpICr71EeEou-201">
          <mxGeometry x="10" y="50" width="90" height="40" as="geometry" />
        </mxCell>
        <mxCell id="6JE3I8eEDpICr71EeEou-204" value="" style="rounded=1;whiteSpace=wrap;html=1;fillColor=#bac8d3;strokeColor=#23445d;" vertex="1" parent="1">
          <mxGeometry x="1692" y="-36" width="368" height="520" as="geometry" />
        </mxCell>
        <mxCell id="6JE3I8eEDpICr71EeEou-207" value="&lt;div align=&quot;left&quot;&gt;&lt;b&gt;--mode &lt;/b&gt;performance&lt;br&gt;&lt;/div&gt;" style="text;html=1;strokeColor=none;fillColor=none;align=center;verticalAlign=middle;whiteSpace=wrap;rounded=0;fontSize=14;" vertex="1" parent="1">
          <mxGeometry x="1712" y="-20" width="161" height="30" as="geometry" />
        </mxCell>
        <mxCell id="6JE3I8eEDpICr71EeEou-208" value="" style="ellipse;whiteSpace=wrap;html=1;aspect=fixed;" vertex="1" parent="1">
          <mxGeometry x="1700" y="-130" width="20" height="20" as="geometry" />
        </mxCell>
        <mxCell id="6JE3I8eEDpICr71EeEou-235" style="edgeStyle=orthogonalEdgeStyle;rounded=0;orthogonalLoop=1;jettySize=auto;html=1;" edge="1" parent="1" source="6JE3I8eEDpICr71EeEou-210" target="6JE3I8eEDpICr71EeEou-234">
          <mxGeometry relative="1" as="geometry" />
        </mxCell>
        <mxCell id="6JE3I8eEDpICr71EeEou-210" value="&lt;div&gt;ground&lt;/div&gt;&lt;div&gt;truth&lt;br&gt;&lt;/div&gt;" style="shape=note;whiteSpace=wrap;html=1;backgroundOutline=1;darkOpacity=0.05;" vertex="1" parent="1">
          <mxGeometry x="1720" y="250" width="80" height="100" as="geometry" />
        </mxCell>
        <mxCell id="6JE3I8eEDpICr71EeEou-211" value="" style="group" vertex="1" connectable="0" parent="1">
          <mxGeometry x="1547" y="331" width="90" height="100" as="geometry" />
        </mxCell>
        <mxCell id="6JE3I8eEDpICr71EeEou-212" value="" style="shape=note;whiteSpace=wrap;html=1;backgroundOutline=1;darkOpacity=0.05;rounded=1;size=20;strokeWidth=2;" vertex="1" parent="6JE3I8eEDpICr71EeEou-211">
          <mxGeometry x="5" width="80" height="100" as="geometry" />
        </mxCell>
        <mxCell id="6JE3I8eEDpICr71EeEou-213" value="&lt;font style=&quot;font-size: 16px;&quot; face=&quot;Maven Pro&quot;&gt;&lt;b&gt;VCF imputed&lt;/b&gt;&lt;/font&gt;&lt;font style=&quot;font-size: 16px;&quot; face=&quot;Maven Pro&quot;&gt;&lt;b&gt;&lt;br&gt;&lt;/b&gt;&lt;/font&gt;" style="rounded=1;whiteSpace=wrap;html=1;strokeWidth=2;fillColor=#d5e8d4;strokeColor=#82b366;" vertex="1" parent="6JE3I8eEDpICr71EeEou-211">
          <mxGeometry y="40" width="90" height="40" as="geometry" />
        </mxCell>
        <mxCell id="6JE3I8eEDpICr71EeEou-214" value="" style="group" vertex="1" connectable="0" parent="1">
          <mxGeometry x="1450" y="847" width="90" height="100" as="geometry" />
        </mxCell>
        <mxCell id="6JE3I8eEDpICr71EeEou-215" value="" style="shape=note;whiteSpace=wrap;html=1;backgroundOutline=1;darkOpacity=0.05;rounded=1;size=20;strokeWidth=2;" vertex="1" parent="6JE3I8eEDpICr71EeEou-214">
          <mxGeometry x="5" width="80" height="100" as="geometry" />
        </mxCell>
        <mxCell id="6JE3I8eEDpICr71EeEou-216" value="&lt;font style=&quot;font-size: 16px;&quot; face=&quot;Maven Pro&quot;&gt;&lt;b&gt;VCF imputed&lt;/b&gt;&lt;/font&gt;&lt;font style=&quot;font-size: 16px;&quot; face=&quot;Maven Pro&quot;&gt;&lt;b&gt;&lt;br&gt;&lt;/b&gt;&lt;/font&gt;" style="rounded=1;whiteSpace=wrap;html=1;strokeWidth=2;fillColor=#d5e8d4;strokeColor=#82b366;" vertex="1" parent="6JE3I8eEDpICr71EeEou-214">
          <mxGeometry y="40" width="90" height="40" as="geometry" />
        </mxCell>
        <mxCell id="6JE3I8eEDpICr71EeEou-217" value="" style="group" vertex="1" connectable="0" parent="1">
          <mxGeometry x="1450" y="1336" width="90" height="100" as="geometry" />
        </mxCell>
        <mxCell id="6JE3I8eEDpICr71EeEou-218" value="" style="shape=note;whiteSpace=wrap;html=1;backgroundOutline=1;darkOpacity=0.05;rounded=1;size=20;strokeWidth=2;" vertex="1" parent="6JE3I8eEDpICr71EeEou-217">
          <mxGeometry x="5" width="80" height="100" as="geometry" />
        </mxCell>
        <mxCell id="6JE3I8eEDpICr71EeEou-219" value="&lt;font style=&quot;font-size: 16px;&quot; face=&quot;Maven Pro&quot;&gt;&lt;b&gt;VCF imputed&lt;/b&gt;&lt;/font&gt;&lt;font style=&quot;font-size: 16px;&quot; face=&quot;Maven Pro&quot;&gt;&lt;b&gt;&lt;br&gt;&lt;/b&gt;&lt;/font&gt;" style="rounded=1;whiteSpace=wrap;html=1;strokeWidth=2;fillColor=#d5e8d4;strokeColor=#82b366;" vertex="1" parent="6JE3I8eEDpICr71EeEou-217">
          <mxGeometry y="40" width="90" height="40" as="geometry" />
        </mxCell>
        <mxCell id="6JE3I8eEDpICr71EeEou-226" value="" style="ellipse;whiteSpace=wrap;html=1;aspect=fixed;" vertex="1" parent="1">
          <mxGeometry x="1190" y="1376" width="20" height="20" as="geometry" />
        </mxCell>
        <mxCell id="6JE3I8eEDpICr71EeEou-227" value="" style="ellipse;whiteSpace=wrap;html=1;aspect=fixed;" vertex="1" parent="1">
          <mxGeometry x="1370" y="1376" width="20" height="20" as="geometry" />
        </mxCell>
        <mxCell id="6JE3I8eEDpICr71EeEou-228" value="" style="ellipse;whiteSpace=wrap;html=1;aspect=fixed;" vertex="1" parent="1">
          <mxGeometry x="1377" y="885" width="20" height="20" as="geometry" />
        </mxCell>
        <mxCell id="6JE3I8eEDpICr71EeEou-229" value="&lt;div&gt;BCFTOOLS concat&lt;/div&gt;" style="text;html=1;strokeColor=none;fillColor=none;align=center;verticalAlign=middle;whiteSpace=wrap;rounded=0;rotation=-45;" vertex="1" parent="1">
          <mxGeometry x="1377" y="846" width="60" height="30" as="geometry" />
        </mxCell>
        <mxCell id="6JE3I8eEDpICr71EeEou-230" value="&lt;div&gt;BCFTOOLS concat&lt;/div&gt;" style="text;html=1;strokeColor=none;fillColor=none;align=center;verticalAlign=middle;whiteSpace=wrap;rounded=0;rotation=-45;" vertex="1" parent="1">
          <mxGeometry x="1366" y="1343" width="60" height="30" as="geometry" />
        </mxCell>
        <mxCell id="6JE3I8eEDpICr71EeEou-231" value="" style="group" vertex="1" connectable="0" parent="1">
          <mxGeometry x="1715" y="60" width="90" height="100" as="geometry" />
        </mxCell>
        <mxCell id="6JE3I8eEDpICr71EeEou-232" value="" style="shape=note;whiteSpace=wrap;html=1;backgroundOutline=1;darkOpacity=0.05;rounded=1;size=20;strokeWidth=2;" vertex="1" parent="6JE3I8eEDpICr71EeEou-231">
          <mxGeometry x="5" width="80" height="100" as="geometry" />
        </mxCell>
        <mxCell id="6JE3I8eEDpICr71EeEou-233" value="&lt;font style=&quot;font-size: 16px;&quot; face=&quot;Maven Pro&quot;&gt;&lt;b&gt;VCF imputed&lt;/b&gt;&lt;/font&gt;&lt;font style=&quot;font-size: 16px;&quot; face=&quot;Maven Pro&quot;&gt;&lt;b&gt;&lt;br&gt;&lt;/b&gt;&lt;/font&gt;" style="rounded=1;whiteSpace=wrap;html=1;strokeWidth=2;fillColor=#d5e8d4;strokeColor=#82b366;" vertex="1" parent="6JE3I8eEDpICr71EeEou-231">
          <mxGeometry y="40" width="90" height="40" as="geometry" />
        </mxCell>
        <mxCell id="6JE3I8eEDpICr71EeEou-234" value="&lt;div&gt;correlation&lt;/div&gt;&lt;div&gt;plots&lt;br&gt;&lt;/div&gt;" style="shape=note;whiteSpace=wrap;html=1;backgroundOutline=1;darkOpacity=0.05;" vertex="1" parent="1">
          <mxGeometry x="1950" y="150" width="80" height="100" as="geometry" />
        </mxCell>
        <mxCell id="6JE3I8eEDpICr71EeEou-236" style="edgeStyle=orthogonalEdgeStyle;rounded=0;orthogonalLoop=1;jettySize=auto;html=1;" edge="1" parent="1" source="6JE3I8eEDpICr71EeEou-232" target="6JE3I8eEDpICr71EeEou-234">
          <mxGeometry relative="1" as="geometry" />
        </mxCell>
        <mxCell id="6JE3I8eEDpICr71EeEou-237" value="" style="group" vertex="1" connectable="0" parent="1">
          <mxGeometry x="1067" y="540" width="100" height="110" as="geometry" />
        </mxCell>
        <mxCell id="6JE3I8eEDpICr71EeEou-238" value="" style="shape=note;whiteSpace=wrap;html=1;backgroundOutline=1;darkOpacity=0.05;rounded=1;size=20;strokeWidth=2;" vertex="1" parent="6JE3I8eEDpICr71EeEou-237">
          <mxGeometry x="15" y="10" width="80" height="100" as="geometry" />
        </mxCell>
        <mxCell id="6JE3I8eEDpICr71EeEou-239" value="&lt;font style=&quot;font-size: 13px;&quot;&gt;Chunks TXT&lt;/font&gt;" style="rounded=1;whiteSpace=wrap;html=1;strokeWidth=2;fillColor=#d0cee2;strokeColor=#56517e;" vertex="1" parent="6JE3I8eEDpICr71EeEou-237">
          <mxGeometry x="10" y="50" width="90" height="40" as="geometry" />
        </mxCell>
      </root>
    </mxGraphModel>
  </diagram>
</mxfile>
